<svg width="26" height="26" viewBox="0 0 26 26" fill="none" xmlns="http://www.w3.org/2000/svg">
<g clip-path="url(#clip0_574_1630)">
<path d="M13.3586 3.20593C12.7847 3.20593 12.3152 3.67545 12.3152 4.24931L12.3152 12.5963C12.3152 13.1702 12.7847 13.6397 13.3586 13.6397C13.9325 13.6397 14.402 13.1702 14.402 12.5963L14.402 4.24931C14.402 3.67545 13.9325 3.20593 13.3586 3.20593ZM18.7215 6.18998C18.3146 6.5969 18.3251 7.23336 18.7111 7.64027C19.8901 8.89232 20.6205 10.5617 20.6622 12.4085C20.7561 16.4046 17.4486 19.8478 13.4525 19.8895C9.3729 19.9521 6.05497 16.6655 6.05497 12.5963C6.05497 10.6765 6.79577 8.93406 8.00608 7.62984C8.39213 7.22292 8.39213 6.58647 7.99565 6.18998C7.5783 5.77263 6.90011 5.78307 6.50363 6.21085C4.99073 7.81765 4.04126 9.95656 3.96823 12.325C3.82215 17.4167 7.96435 21.8197 13.056 21.9762C18.3772 22.1432 22.749 17.8758 22.749 12.5859C22.749 10.1131 21.7891 7.88025 20.224 6.21085C19.8275 5.78307 19.1389 5.77263 18.7215 6.18998Z" fill="white"/>
</g>
<defs>
<clipPath id="clip0_574_1630">
<rect width="25.041" height="25.041" fill="white" transform="translate(0.838135 0.0758057)"/>
</clipPath>
</defs>
</svg>
