<svg width="28" height="28" viewBox="0 0 28 28" fill="none" xmlns="http://www.w3.org/2000/svg">
<g clip-path="url(#clip0_574_1619)">
<path d="M21.4393 3.48366L16.7425 3.48366C16.2706 2.18024 15.0346 1.23639 13.5739 1.23639C12.1132 1.23639 10.8772 2.18024 10.4052 3.48366L5.70845 3.48366C4.47245 3.48366 3.46118 4.49493 3.46118 5.73093L3.46118 21.4618C3.46118 22.6978 4.47245 23.7091 5.70845 23.7091L21.4393 23.7091C22.6753 23.7091 23.6866 22.6978 23.6866 21.4618L23.6866 5.73093C23.6866 4.49493 22.6753 3.48366 21.4393 3.48366ZM13.5739 3.48366C14.1919 3.48366 14.6975 3.98929 14.6975 4.60729C14.6975 5.22529 14.1919 5.73093 13.5739 5.73093C12.9559 5.73093 12.4503 5.22529 12.4503 4.60729C12.4503 3.98929 12.9559 3.48366 13.5739 3.48366ZM14.6975 19.2145H9.07935C8.46135 19.2145 7.95572 18.7089 7.95572 18.0909C7.95572 17.4729 8.46135 16.9673 9.07935 16.9673H14.6975C15.3155 16.9673 15.8212 17.4729 15.8212 18.0909C15.8212 18.7089 15.3155 19.2145 14.6975 19.2145ZM18.0684 14.72L9.07935 14.72C8.46135 14.72 7.95572 14.2144 7.95572 13.5964C7.95572 12.9784 8.46135 12.4727 9.07935 12.4727L18.0684 12.4727C18.6864 12.4727 19.1921 12.9784 19.1921 13.5964C19.1921 14.2144 18.6864 14.72 18.0684 14.72ZM18.0684 10.2255L9.07935 10.2255C8.46135 10.2255 7.95572 9.71983 7.95572 9.10183C7.95572 8.48383 8.46135 7.97819 9.07935 7.97819L18.0684 7.97819C18.6864 7.97819 19.1921 8.48383 19.1921 9.10183C19.1921 9.71983 18.6864 10.2255 18.0684 10.2255Z" fill="white"/>
</g>
<defs>
<clipPath id="clip0_574_1619">
<rect width="26.9672" height="26.9672" fill="white" transform="translate(0.09021 0.112732)"/>
</clipPath>
</defs>
</svg>
