<svg width="28" height="28" viewBox="0 0 28 28" fill="none" xmlns="http://www.w3.org/2000/svg">
<g clip-path="url(#clip0_574_1626)">
<path d="M13.0198 11.8675C13.0198 11.2495 13.5255 10.7439 14.1435 10.7439C14.7615 10.7439 15.2671 11.2495 15.2671 11.8675V19.7329H13.0198V11.8675ZM23.1325 15.2384C22.5145 15.2384 22.0089 15.744 22.0089 16.362L22.0089 21.9802L6.27803 21.9802L6.27803 6.24932L11.8962 6.24932C12.5142 6.24932 13.0198 5.74368 13.0198 5.12569C13.0198 4.50769 12.5142 4.00205 11.8962 4.00205L6.27803 4.00205C5.04203 4.00205 4.03076 5.01332 4.03076 6.24932L4.03076 21.9802C4.03076 23.2162 5.04203 24.2275 6.27803 24.2275L22.0089 24.2275C23.2449 24.2275 24.2562 23.2162 24.2562 21.9802L24.2562 16.362C24.2562 15.744 23.7505 15.2384 23.1325 15.2384ZM24.2562 6.24932H22.0089V4.00205C22.0089 3.38405 21.5033 2.87842 20.8853 2.87842C20.2673 2.87842 19.7616 3.38405 19.7616 4.00205V6.24932H17.5144C16.8964 6.24932 16.3907 6.75495 16.3907 7.37295C16.3907 7.99095 16.8964 8.49659 17.5144 8.49659H19.7616V10.7439C19.7616 11.3619 20.2673 11.8675 20.8853 11.8675C21.5033 11.8675 22.0089 11.3619 22.0089 10.7439V8.49659H24.2562C24.8742 8.49659 25.3798 7.99095 25.3798 7.37295C25.3798 6.75495 24.8742 6.24932 24.2562 6.24932ZM18.638 15.2384C18.02 15.2384 17.5144 15.744 17.5144 16.362V19.7329H19.7616V16.362C19.7616 15.744 19.256 15.2384 18.638 15.2384ZM8.5253 14.1148L8.5253 19.7329H10.7726L10.7726 14.1148C10.7726 13.4968 10.2669 12.9911 9.64893 12.9911C9.03093 12.9911 8.5253 13.4968 8.5253 14.1148Z" fill="white"/>
</g>
<defs>
<clipPath id="clip0_574_1626">
<rect width="26.9672" height="26.9672" fill="white" transform="translate(0.65979 0.631165)"/>
</clipPath>
</defs>
</svg>
