<svg width="29" height="29" viewBox="0 0 29 29" fill="none" xmlns="http://www.w3.org/2000/svg">
<g clip-path="url(#clip0_574_1616)">
<path d="M22.5911 4.06224H17.8104C17.33 2.73555 16.072 1.77484 14.5852 1.77484C13.0984 1.77484 11.8403 2.73555 11.3599 4.06224L6.57927 4.06224C5.3212 4.06224 4.29187 5.09157 4.29187 6.34964L4.29187 22.3614C4.29187 23.6195 5.3212 24.6488 6.57927 24.6488L22.5911 24.6488C23.8491 24.6488 24.8784 23.6195 24.8784 22.3614L24.8784 6.34964C24.8784 5.09157 23.8491 4.06224 22.5911 4.06224ZM14.5852 4.06224C15.2142 4.06224 15.7289 4.5769 15.7289 5.20594C15.7289 5.83497 15.2142 6.34964 14.5852 6.34964C13.9561 6.34964 13.4415 5.83497 13.4415 5.20594C13.4415 4.5769 13.9561 4.06224 14.5852 4.06224ZM14.5852 8.63703C16.4837 8.63703 18.0163 10.1696 18.0163 12.0681C18.0163 13.9667 16.4837 15.4992 14.5852 15.4992C12.6866 15.4992 11.1541 13.9667 11.1541 12.0681C11.1541 10.1696 12.6866 8.63703 14.5852 8.63703ZM21.4474 22.3614H7.72297V20.7602C7.72297 18.4728 12.2978 17.2148 14.5852 17.2148C16.8726 17.2148 21.4474 18.4728 21.4474 20.7602V22.3614Z" fill="white"/>
</g>
<defs>
<clipPath id="clip0_574_1616">
<rect width="27.4488" height="27.4488" fill="white" transform="translate(0.860718 0.631165)"/>
</clipPath>
</defs>
</svg>
