<svg width="29" height="28" viewBox="0 0 29 28" fill="none" xmlns="http://www.w3.org/2000/svg">
<g clip-path="url(#clip0_574_1622)">
<path d="M14.3556 22.9866C9.31186 22.9866 5.20598 18.8807 5.20598 13.837C5.20598 8.7933 9.31186 4.68742 14.3556 4.68742C19.3993 4.68742 23.5052 8.7933 23.5052 13.837C23.5052 18.8807 19.3993 22.9866 14.3556 22.9866ZM14.3556 25.274C20.6688 25.274 25.7926 20.1502 25.7926 13.837C25.7926 7.5238 20.6688 2.40002 14.3556 2.40002C8.04235 2.40002 2.91858 7.5238 2.91858 13.837C2.91858 20.1502 8.04235 25.274 14.3556 25.274ZM13.2119 13.837V17.2681C13.2119 17.8971 13.7265 18.4118 14.3556 18.4118C14.9846 18.4118 15.4993 17.8971 15.4993 17.2681V13.837H17.5465C18.0612 13.837 18.3128 13.2194 17.9468 12.8649L14.7559 9.67395C14.5271 9.44521 14.1726 9.44521 13.9438 9.67395L10.7529 12.8649C10.3984 13.2194 10.65 13.837 11.1646 13.837L13.2119 13.837Z" fill="white"/>
</g>
<defs>
<clipPath id="clip0_574_1622">
<rect width="27.4488" height="27.4488" fill="white" transform="translate(0.631104 0.112671)"/>
</clipPath>
</defs>
</svg>
